<svg xmlns="http://www.w3.org/2000/svg" viewBox="0 0 512 512">
  <rect width="512" height="512" rx="96" fill="#0a0a0a"/>
  <g transform="translate(156,80) scale(4.5)">
    <circle cx="22" cy="7" r="5.5" fill="none" stroke="#FF4D1C" stroke-width="1.5"/>
    <path d="M13 15.5 L31 15.5 L32 18 L33 24 L32 32 L30 36 L28 37 L16 37 L14 36 L12 32 L11 24 L12 18 Z" fill="none" stroke="#333" stroke-width="1"/>
    <rect x="17" y="24" width="10" height="12" rx="3" fill="#FF4D1C" opacity="0.7"/>
    <ellipse cx="17" cy="45" rx="3" ry="5" fill="#FF4D1C" opacity="0.5"/>
    <ellipse cx="27" cy="45" rx="3" ry="5" fill="#FF4D1C" opacity="0.5"/>
    <path d="M16 37 L15 42 L14 48 L13.5 52 L13 56 L12 59 L16 59 L16.5 56 L17 52 L18 48 L19.5 42 L21 37" fill="none" stroke="#333" stroke-width="1"/>
    <path d="M28 37 L29 42 L30 48 L30.5 52 L31 56 L32 59 L28 59 L27.5 56 L27 52 L26 48 L24.5 42 L23 37" fill="none" stroke="#333" stroke-width="1"/>
  </g>
  <text x="256" y="440" text-anchor="middle" fill="#FF4D1C" font-family="system-ui" font-weight="800" font-size="64">GYM</text>
</svg>
